<?xml version="1.0" encoding="UTF-8"?>
<svg xmlns="http://www.w3.org/2000/svg" width="1242" height="2208" viewBox="0 0 1242 2208">
  <style>
    .font { font-family: -apple-system, BlinkMacSystemFont, "SF Pro Display", "Inter", Arial, sans-serif; }
    .mono { font-family: "SF Mono", "JetBrains Mono", Menlo, Consolas, monospace; }
    text { dominant-baseline: hanging; }
  </style>
  
    <defs>
      <radialGradient id="bgGlow" cx="50%" cy="12%" r="70%">
        <stop offset="0%" stop-color="#F5B800" stop-opacity="0.34"/>
        <stop offset="48%" stop-color="#F5B800" stop-opacity="0.11"/>
        <stop offset="100%" stop-color="#1A1714" stop-opacity="0"/>
      </radialGradient>
      <linearGradient id="bg" x1="0" y1="0" x2="0" y2="1">
        <stop offset="0%" stop-color="#191511"/>
        <stop offset="58%" stop-color="#1A1714"/>
        <stop offset="100%" stop-color="#0E0C0A"/>
      </linearGradient>
      <filter id="shadow" x="-30%" y="-20%" width="160%" height="160%">
        <feDropShadow dx="0" dy="48" stdDeviation="52" flood-color="#000" flood-opacity="0.42"/>
      </filter>
      <filter id="softShadow" x="-30%" y="-30%" width="160%" height="160%">
        <feDropShadow dx="0" dy="18" stdDeviation="20" flood-color="#000" flood-opacity="0.22"/>
      </filter>
    </defs>
    <rect width="1242" height="2208" fill="url(#bg)"/>
    <rect width="1242" height="2208" fill="url(#bgGlow)"/>
    <circle cx="1068.12" cy="176.64000000000001" r="322.92" fill="#F5B800" opacity="0.09"/>
    <circle cx="124.2" cy="1943.04" r="273.24" fill="#F5B800" opacity="0.07"/>

    
    <rect x="416" y="108" width="410" height="49.199999999999996" rx="24" fill="#F5B800" opacity="0.16" stroke="#F5B800" stroke-opacity="0.54" stroke-width="2"/>
    <text class="font" x="621" y="119.52" text-anchor="middle" font-size="24" font-weight="800" fill="#F5B800" letter-spacing="2">END-TO-END ENCRYPTED</text>
  
    
    <text class="font" x="621" y="212" text-anchor="middle" font-size="104" font-weight="900" fill="#FAF8F5" letter-spacing="-3">Your files,</text>
  
    <text class="font" x="621" y="313.92" text-anchor="middle" font-size="104" font-weight="900" fill="#F5B800" letter-spacing="-3">encrypted</text>
  
    
    <text class="font" x="621" y="446" text-anchor="middle" font-size="34" font-weight="500" fill="#EDE5D8" opacity="0.84">Mock vault data. Documents, photos, work files, and</text>
  
    <text class="font" x="621" y="489.52" text-anchor="middle" font-size="34" font-weight="500" fill="#EDE5D8" opacity="0.84">contracts stay private before upload.</text>
  

    
    <g filter="url(#shadow)">
      <rect x="311" y="690" width="620" height="1346" rx="74.39999999999999" fill="#050505"/>
      <rect x="318.44" y="697.44" width="605.12" height="1331.12" rx="68.448" fill="#1F1F20"/>
      <rect x="328.36" y="707.36" width="585.28" height="1311.28" rx="56.544" fill="#FAF8F5"/>
      <clipPath id="screenClip311690620">
        <rect x="328.36" y="707.36" width="585.28" height="1311.28" rx="56.544"/>
      </clipPath>
      <g clip-path="url(#screenClip311690620)">
        <g transform="translate(328.36 707.36) scale(1.3611162790697673 1.4069527896995708)">
          
    <rect width="430" height="932" fill="#FAF8F5"/>
    
    <rect x="0" y="0" width="430" height="66" fill="transparent"/>
    <text class="font" x="40" y="25" font-size="15" font-weight="700" fill="#2A2520">9:41</text>
    <g fill="#2A2520" opacity="0.92">
      <rect x="322" y="27" width="4" height="10" rx="1"/><rect x="329" y="23" width="4" height="14" rx="1"/><rect x="336" y="19" width="4" height="18" rx="1"/>
      <path d="M353 32 q12 -12 24 0 l-4 4 q-8 -8 -16 0z"/><circle cx="365" cy="39" r="3"/>
      <rect x="386" y="24" width="25" height="13" rx="3" fill="none" stroke="#2A2520" stroke-width="1.5"/><rect x="389" y="27" width="17" height="7" rx="2"/><rect x="413" y="28" width="2.5" height="5" rx="1"/>
    </g>
  
    
    <g>
      <text class="font" x="26" y="78" font-size="30" font-weight="850" fill="#2A2520">Drive</text>
      
    <circle cx="382" cy="92" r="15" fill="#F5B800" stroke="#F5B800"/>
  
    <circle cx="340" cy="92" r="15" fill="#F2EDE5" stroke="#E6E0D6"/>
  
    <circle cx="298" cy="92" r="15" fill="#F2EDE5" stroke="#E6E0D6"/>
  
    </g>
  
    <rect x="26" y="126" width="378" height="92" rx="22" fill="#2A2520"/>
    <text class="font" x="48" y="148" font-size="15" font-weight="750" fill="#FAF8F5">Encrypted storage</text>
    <text class="font" x="48" y="176" font-size="28" font-weight="850" fill="#F5B800">23.4 GB</text>
    <text class="font" x="158" y="184" font-size="13" font-weight="650" fill="#FAF8F5" opacity="0.72">of 200 GB used</text>
    <rect x="48" y="204" width="238" height="5" rx="3" fill="#FAF8F5" opacity="0.22"/><rect x="48" y="204" width="92" height="5" rx="3" fill="#F5B800"/>
    <text class="font" x="26" y="246" font-size="12" font-weight="850" fill="#7D7770" letter-spacing="1">PINNED</text>
    <g transform="translate(26 272)">
      
        <rect x="0" y="0" width="116" height="74" rx="18" fill="#FEF4CF" stroke="#FDE8A8"/>
        <path d="M16 21.04 h7.92 l2.6399999999999997 3.08 h11.440000000000001 v9.68 a1.98 1.98 0 0 1 -1.98 1.98 h-18.04 a1.98 1.98 0 0 1 -1.98 -1.98 z" fill="#B8860B"/>
        <text class="font" x="16" y="44" font-size="13" font-weight="800" fill="#2A2520">Documents</text>
      
        <rect x="128" y="0" width="116" height="74" rx="18" fill="#FEF4CF" stroke="#FDE8A8"/>
        <path d="M144 21.04 h7.92 l2.6399999999999997 3.08 h11.440000000000001 v9.68 a1.98 1.98 0 0 1 -1.98 1.98 h-18.04 a1.98 1.98 0 0 1 -1.98 -1.98 z" fill="#B8860B"/>
        <text class="font" x="144" y="44" font-size="13" font-weight="800" fill="#2A2520">Photos</text>
      
        <rect x="256" y="0" width="116" height="74" rx="18" fill="#FEF4CF" stroke="#FDE8A8"/>
        <path d="M272 21.04 h7.92 l2.6399999999999997 3.08 h11.440000000000001 v9.68 a1.98 1.98 0 0 1 -1.98 1.98 h-18.04 a1.98 1.98 0 0 1 -1.98 -1.98 z" fill="#B8860B"/>
        <text class="font" x="272" y="44" font-size="13" font-weight="800" fill="#2A2520">Work</text>
      
    </g>
    <text class="font" x="26" y="376" font-size="12" font-weight="850" fill="#7D7770" letter-spacing="1">RECENT FILES</text>
    
    <g opacity="1">
      <rect x="26" y="406" width="378" height="52" rx="16" fill="#FFFFFF" stroke="#E6E0D6"/>
      <rect x="40" y="416" width="34" height="34" rx="10" fill="#B8860B"/><path d="M48 433.04 h7.92 l2.6399999999999997 3.08 h11.440000000000001 v9.68 a1.98 1.98 0 0 1 -1.98 1.98 h-18.04 a1.98 1.98 0 0 1 -1.98 -1.98 z" fill="#fff"/>
      <text class="font" x="84" y="417" font-size="14" font-weight="850" fill="#2A2520">Documents</text>
      <text class="font" x="84" y="437" font-size="11" font-weight="650" fill="#7D7770">42 items · encrypted · 3 days ago</text>
      <text class="font" x="380" y="421" text-anchor="middle" font-size="24" font-weight="500" fill="#7D7770">›</text>
    </g>
  
    <g opacity="1">
      <rect x="26" y="464" width="378" height="52" rx="16" fill="#FFFFFF" stroke="#E6E0D6"/>
      <rect x="40" y="474" width="34" height="34" rx="10" fill="#B8860B"/><path d="M48 491.04 h7.92 l2.6399999999999997 3.08 h11.440000000000001 v9.68 a1.98 1.98 0 0 1 -1.98 1.98 h-18.04 a1.98 1.98 0 0 1 -1.98 -1.98 z" fill="#fff"/>
      <text class="font" x="84" y="475" font-size="14" font-weight="850" fill="#2A2520">Photos</text>
      <text class="font" x="84" y="495" font-size="11" font-weight="650" fill="#7D7770">4,210 photos · all caught up</text>
      <text class="font" x="380" y="479" text-anchor="middle" font-size="24" font-weight="500" fill="#7D7770">›</text>
    </g>
  
    <g opacity="1">
      <rect x="26" y="522" width="378" height="52" rx="16" fill="#FFFFFF" stroke="#E6E0D6"/>
      <rect x="40" y="532" width="34" height="34" rx="10" fill="#B8860B"/><path d="M48 549.04 h7.92 l2.6399999999999997 3.08 h11.440000000000001 v9.68 a1.98 1.98 0 0 1 -1.98 1.98 h-18.04 a1.98 1.98 0 0 1 -1.98 -1.98 z" fill="#fff"/>
      <text class="font" x="84" y="533" font-size="14" font-weight="850" fill="#2A2520">Work</text>
      <text class="font" x="84" y="553" font-size="11" font-weight="650" fill="#7D7770">16 items · yesterday</text>
      <text class="font" x="380" y="537" text-anchor="middle" font-size="24" font-weight="500" fill="#7D7770">›</text>
    </g>
  
    <g opacity="1">
      <rect x="26" y="580" width="378" height="52" rx="16" fill="#FFFFFF" stroke="#E6E0D6"/>
      <rect x="40" y="590" width="34" height="34" rx="10" fill="#D84040"/><rect x="51" y="598" width="14" height="18" rx="2" fill="#fff"/><text class="font" x="58" y="618" text-anchor="middle" font-size="6" font-weight="900" fill="#fff">PDF</text>
      <text class="font" x="84" y="591" font-size="14" font-weight="850" fill="#2A2520">Contract_2026.pdf</text>
      <text class="font" x="84" y="611" font-size="11" font-weight="650" fill="#7D7770">1.8 MB · AES-256-GCM</text>
      <text class="font" x="380" y="595" text-anchor="middle" font-size="24" font-weight="500" fill="#7D7770">›</text>
    </g>
  
    <g opacity="1">
      <rect x="26" y="638" width="378" height="52" rx="16" fill="#FFFFFF" stroke="#E6E0D6"/>
      <rect x="40" y="648" width="34" height="34" rx="10" fill="#B8860B"/><path d="M48 665.04 h7.92 l2.6399999999999997 3.08 h11.440000000000001 v9.68 a1.98 1.98 0 0 1 -1.98 1.98 h-18.04 a1.98 1.98 0 0 1 -1.98 -1.98 z" fill="#fff"/>
      <text class="font" x="84" y="649" font-size="14" font-weight="850" fill="#2A2520">Vacation</text>
      <text class="font" x="84" y="669" font-size="11" font-weight="650" fill="#7D7770">238 items · backed up</text>
      <text class="font" x="380" y="653" text-anchor="middle" font-size="24" font-weight="500" fill="#7D7770">›</text>
    </g>
  
    <g opacity="1">
      <rect x="26" y="696" width="378" height="52" rx="16" fill="#FFFFFF" stroke="#E6E0D6"/>
      <rect x="40" y="706" width="34" height="34" rx="10" fill="#B8860B"/><path d="M48 723.04 h7.92 l2.6399999999999997 3.08 h11.440000000000001 v9.68 a1.98 1.98 0 0 1 -1.98 1.98 h-18.04 a1.98 1.98 0 0 1 -1.98 -1.98 z" fill="#fff"/>
      <text class="font" x="84" y="707" font-size="14" font-weight="850" fill="#2A2520">Tax_returns</text>
      <text class="font" x="84" y="727" font-size="11" font-weight="650" fill="#7D7770">6 files · locked</text>
      <text class="font" x="380" y="711" text-anchor="middle" font-size="24" font-weight="500" fill="#7D7770">›</text>
    </g>
  
    <g opacity="1">
      <rect x="26" y="754" width="378" height="52" rx="16" fill="#FFFFFF" stroke="#E6E0D6"/>
      <rect x="40" y="764" width="34" height="34" rx="10" fill="#F5B800"/><rect x="50" y="773" width="16" height="14" rx="2" fill="#2A2520"/><circle cx="62" cy="777" r="2" fill="#F5B800"/><path d="M52 785 l5 -5 l3 3 l3 -4 l4 6z" fill="#F5B800"/>
      <text class="font" x="84" y="765" font-size="14" font-weight="850" fill="#2A2520">family-photo-042.heic</text>
      <text class="font" x="84" y="785" font-size="11" font-weight="650" fill="#7D7770">3.1 MB · Apr 28</text>
      <text class="font" x="380" y="769" text-anchor="middle" font-size="24" font-weight="500" fill="#7D7770">›</text>
    </g>
  
    <circle cx="370" cy="784" r="28" fill="#F5B800" filter="url(#softShadow)"/>
    <path d="M370 771 v26 M357 784 h26" stroke="#2A2520" stroke-width="4" stroke-linecap="round"/>
    
    <rect x="0" y="840" width="430" height="92" fill="#FAF8F5" stroke="#E6E0D6"/>
    
        <g transform="translate(30 852)" fill="none" stroke="#2A2520" stroke-width="2.4" stroke-linecap="round" stroke-linejoin="round">
          <path d="M10 15 h28 v22 h-28z M14 12 h11 l4 5 h9"/>
        </g>
        <text class="font" x="54" y="896" text-anchor="middle" font-size="11" font-weight="800" fill="#2A2520">Files</text>
      
        <g transform="translate(137.5 852)" fill="none" stroke="#A8A29C" stroke-width="2.4" stroke-linecap="round" stroke-linejoin="round">
          <path d="M14 22 a6 6 0 1 0 0.1 0 M29 22 a6 6 0 1 0 0.1 0 M8 39 q16 -13 32 0"/>
        </g>
        <text class="font" x="161.5" y="896" text-anchor="middle" font-size="11" font-weight="600" fill="#A8A29C">Shared</text>
      
        <g transform="translate(245 852)" fill="none" stroke="#A8A29C" stroke-width="2.4" stroke-linecap="round" stroke-linejoin="round">
          <path d="M10 12 h28 v26 h-28z M15 32 l8 -9 6 6 4 -5 5 8"/>
        </g>
        <text class="font" x="269" y="896" text-anchor="middle" font-size="11" font-weight="600" fill="#A8A29C">Photos</text>
      
        <g transform="translate(352.5 852)" fill="none" stroke="#A8A29C" stroke-width="2.4" stroke-linecap="round" stroke-linejoin="round">
          <path d="M24 18 a6 6 0 1 0 0.1 0 M24 8 v5 M24 35 v5 M8 24 h5 M35 24 h5"/>
        </g>
        <text class="font" x="376.5" y="896" text-anchor="middle" font-size="11" font-weight="600" fill="#A8A29C">Settings</text>
      
  
  
        </g>
      </g>
      <rect x="528" y="722.24" width="186" height="52.7" rx="26.659999999999997" fill="#000"/>
      <rect x="528" y="1997.56" width="186" height="7.44" rx="3.72" fill="#000" opacity="0.74"/>
    </g>
  
    
    <circle cx="532.2" cy="2162" r="10.08" fill="#F5B800"/>
    <text class="mono" x="553.8" y="2150" font-size="24" font-weight="700" fill="#FAF8F5" opacity="0.72">beebeeb</text>
  
  
</svg>
